<svg id="contract" xmlns="http://www.w3.org/2000/svg" width="38.18" height="38.18"><path id="Path_2791" data-name="Path 2791" d="M39.18 13.646a2.793 2.793 0 00-4.768-1.975L32.587 13.5l-2.028 2.028V9.572A4.308 4.308 0 0029.943 1H5.311A4.315 4.315 0 001 5.311V36.1a.616.616 0 00.616.616h3.079v1.847a.616.616 0 00.616.616h24.632a.616.616 0 00.616-.616V23.424l5.978-5.978.632-.632a8.251 8.251 0 01-2.269 4.221l-2.929 2.929.871.871 2.929-2.929a9.467 9.467 0 002.782-6.518 2.761 2.761 0 00.626-1.742zm-3.9-1.1a1.561 1.561 0 112.208 2.208L36.1 16.14l-2.208-2.208zM33.022 14.8l.669.669-7.751 7.753-.669-.669zM18.376 31.053l1.267-2.534 1.871 1.871-2.534 1.267zm1.969-3.574l4.055-4.055 2.208 2.208-4.056 4.056zm9.6-25.248a3.079 3.079 0 010 6.158H8.322a4.3 4.3 0 000-6.158zM5.926 8.328V6.542a.617.617 0 01.616-.616h1.786a3.089 3.089 0 01-2.402 2.402zM2.232 35.485V5.311a3.079 3.079 0 016.1-.616h-1.79a1.85 1.85 0 00-1.847 1.847v28.943zm27.1 2.463H5.926V9.621h23.4v7.135l-2.718 2.718H8.39v1.232h16.987l-1.232 1.232H8.39v1.232h14.524l-3.875 3.875a.6.6 0 00-.108.163h-.007L17.076 30.9a.615.615 0 00.116.711l.18.181L15.96 33.2l.871.871 1.412-1.412.18.18a.616.616 0 00.435.18.624.624 0 00.275-.065l3.695-1.847V31.1a.6.6 0 00.163-.108l4.926-4.926 1.413-1.413zM27.48 24.762l-.669-.669 7.751-7.751.669.669z" transform="translate(-1 -1)" fill="#fff"/><path id="Path_2792" data-name="Path 2792" d="M13 19h18.474v1.232H13z" transform="translate(-5.61 -7.915)" fill="#fff"/><path id="Path_2793" data-name="Path 2793" d="M13 23h18.474v1.232H13z" transform="translate(-5.61 -9.452)" fill="#fff"/><path id="Path_2794" data-name="Path 2794" d="M13 27h18.474v1.232H13z" transform="translate(-5.61 -10.989)" fill="#fff"/><path id="Path_2795" data-name="Path 2795" d="M13 51h6.774v1.232H13z" transform="translate(-5.61 -20.21)" fill="#fff"/><path id="Path_2796" data-name="Path 2796" d="M13 55h18.474v1.232H13z" transform="translate(-5.61 -21.746)" fill="#fff"/></svg>