<svg id="Group_1486" data-name="Group 1486" xmlns="http://www.w3.org/2000/svg" width="34.23" height="34.23"><ellipse id="Ellipse_1059" data-name="Ellipse 1059" cx="1.482" cy="1.779" rx="1.482" ry="1.779" transform="translate(23.926 11.958)" fill="#fff"/><path id="Path_2721" data-name="Path 2721" d="M28.882 2.674h-1.738V1.337a1.337 1.337 0 00-2.674 0v1.337h-6.085V1.337a1.337 1.337 0 10-2.674 0v1.337H9.694V1.337a1.337 1.337 0 10-2.674 0v1.337H5.348A5.355 5.355 0 000 8.023v20.859a5.355 5.355 0 005.348 5.348h10.229a1.337 1.337 0 100-2.674H5.348a2.677 2.677 0 01-2.674-2.674V8.023a2.677 2.677 0 012.674-2.675H7.02v1.338a1.337 1.337 0 002.674 0V5.348h6.017v1.338a1.337 1.337 0 002.674 0V5.348h6.084v1.338a1.337 1.337 0 002.674 0V5.348h1.738a2.677 2.677 0 012.674 2.674v7.622a1.337 1.337 0 002.674 0V8.023a5.355 5.355 0 00-5.347-5.349z" fill="#fff"/><path id="Path_2722" data-name="Path 2722" d="M278.09 270a8.09 8.09 0 108.09 8.09 8.1 8.1 0 00-8.09-8.09zm0 13.5a5.415 5.415 0 115.415-5.415 5.421 5.421 0 01-5.415 5.415z" transform="translate(-251.949 -251.949)" fill="#fff"/><path id="Path_2723" data-name="Path 2723" d="M374.276 332.741h-.6v-1.4a1.337 1.337 0 10-2.674 0v2.741a1.337 1.337 0 001.337 1.337h1.939a1.337 1.337 0 000-2.674z" transform="translate(-346.196 -307.937)" fill="#fff"/><ellipse id="Ellipse_1060" data-name="Ellipse 1060" cx="1.186" cy="1.779" rx="1.186" ry="1.779" transform="translate(18.59 11.958)" fill="#fff"/><ellipse id="Ellipse_1061" data-name="Ellipse 1061" cx="1.779" cy="1.186" rx="1.779" ry="1.186" transform="translate(12.068 18.48)" fill="#fff"/><ellipse id="Ellipse_1062" data-name="Ellipse 1062" cx="1.482" cy="1.779" rx="1.482" ry="1.779" transform="translate(6.732 11.958)" fill="#fff"/><ellipse id="Ellipse_1063" data-name="Ellipse 1063" cx="1.482" cy="1.186" rx="1.482" ry="1.186" transform="translate(6.732 18.48)" fill="#fff"/><circle id="Ellipse_1064" data-name="Ellipse 1064" cx="1.482" cy="1.482" r="1.482" transform="translate(6.732 23.816)" fill="#fff"/><ellipse id="Ellipse_1065" data-name="Ellipse 1065" cx="1.779" cy="1.482" rx="1.779" ry="1.482" transform="translate(12.068 23.816)" fill="#fff"/><circle id="Ellipse_1066" data-name="Ellipse 1066" cx="1.779" cy="1.779" r="1.779" transform="translate(12.068 11.958)" fill="#fff"/></svg>