<svg id="income" xmlns="http://www.w3.org/2000/svg" width="32.91" height="33.372"><path id="Path_2753" data-name="Path 2753" d="M187 16.511a8.256 8.256 0 10-8.256-8.256A8.265 8.265 0 00187 16.511zM186.027 3.4v-.221a.978.978 0 111.955 0V3.4a2.585 2.585 0 012.039 2.523.978.978 0 11-1.955 0 .627.627 0 00-.626-.626h-.877a.625.625 0 00-.372 1.128l.813.6 1.976 1.463a2.592 2.592 0 011.045 2.057v.009a2.583 2.583 0 01-2.044 2.543v.229a.978.978 0 11-1.955 0V13.1a2.581 2.581 0 01-2.038-2.507.978.978 0 01.971-.984h.007a.978.978 0 01.978.972.624.624 0 00.629.622l.875-.005a.625.625 0 00.622-.63v-.009a.628.628 0 00-.254-.5l-.813-.6L185.028 8a2.581 2.581 0 011-4.6z" transform="translate(-167.329)" fill="#1c1d23"/><path id="Path_2754" data-name="Path 2754" d="M9.847 318.857a.911.911 0 00-1.244-.333L4 321.178a.912.912 0 00-.333 1.245l4.7 8.141a.911.911 0 001.244.333l4.6-2.655a.911.911 0 00.337-1.242z" transform="translate(-3.548 -297.648)" fill="#1c1d23"/><path id="Path_2755" data-name="Path 2755" d="M160.268 273.808a1.37 1.37 0 00-1.913-.311l-5.724 4.125a3.465 3.465 0 01-.412.3 3.547 3.547 0 01-1.9.543h-4.679a.978.978 0 010-1.955h5.008a1.3 1.3 0 001.294-1.35 1.316 1.316 0 00-1.326-1.242H146.8a6.34 6.34 0 00-.844-.747 6.254 6.254 0 00-3.724-1.223 6.9 6.9 0 00-5.968 3.646l4 6.927h7.5a8.421 8.421 0 004.2-1.111 16.824 16.824 0 001.43-.929c2.152-1.546 6.553-4.758 6.556-4.76a1.37 1.37 0 00.318-1.913z" transform="translate(-127.617 -254.224)" fill="#1c1d23"/></svg>