<svg id="guarantee" xmlns="http://www.w3.org/2000/svg" width="33.151" height="31.375"><path id="Path_2745" data-name="Path 2745" d="M289.932 335.257a1.775 1.775 0 01-1.428-.7 1.745 1.745 0 01-.343.007v6.612l1.421-1.065a.592.592 0 01.711 0l1.421 1.065v-6.612a2.089 2.089 0 00-1.78.692zm0 0" transform="translate(-266.836 -309.802)" fill="#1c1d23"/><path id="Path_2746" data-name="Path 2746" d="M0 352.592a1.776 1.776 0 001.776 1.776h18.366V352H0zm0 0" transform="translate(0 -325.952)" fill="#1c1d23"/><path id="Path_2747" data-name="Path 2747" d="M277.681 250.383a.592.592 0 01-.336-.812.615.615 0 00-.817-.822.592.592 0 01-.813-.336.613.613 0 00-1.156 0 .592.592 0 01-.813.336.615.615 0 00-.817.822.592.592 0 01-.336.812.616.616 0 000 1.16.592.592 0 01.336.812.615.615 0 00.817.822.592.592 0 01.813.336.613.613 0 001.156 0 .592.592 0 01.813-.336.615.615 0 00.817-.822.592.592 0 01.336-.812.616.616 0 000-1.16zm0 0" transform="translate(-252.042 -229.652)" fill="#1c1d23"/><path id="Path_2748" data-name="Path 2748" d="M64 1.776v23.088h15.4v-.658a1.779 1.779 0 01-.488-1.468 1.808 1.808 0 010-2.854 1.806 1.806 0 012.013-2.018 1.8 1.8 0 012.851 0 1.805 1.805 0 012.013 2.018 1.808 1.808 0 010 2.854 1.775 1.775 0 01-.473 1.45v4.118a1.758 1.758 0 00.582.109 1.776 1.776 0 001.776-1.776V1.776a2.949 2.949 0 01.056-.549c.01-.056.028-.109.041-.164a3 3 0 01.11-.355c.023-.059.048-.115.075-.172a2.959 2.959 0 01.171-.314c.031-.05.059-.1.094-.147.017-.024.029-.051.047-.074h-22.5A1.776 1.776 0 0064 1.776zm20.72 12.432H74.655v-1.184h10.064zm0-2.96H71.1v-1.184h13.619zm-7.1-7.7h2.368v1.188h-2.373zm-5.92 0h4.736v1.188h-4.741zm-1.776 2.96h11.84V7.7H69.919zm-2.96 3.552h2.96v1.184h-2.96zm0 2.96h6.512v1.184h-6.517zm0 2.96H78.8v1.184H66.959zm0 2.96h10.059v1.184H66.959zm0 0" transform="translate(-59.263)" fill="#1c1d23"/><path id="Path_2749" data-name="Path 2749" d="M401.776 0A1.776 1.776 0 00400 1.776v.592h3.552v-.592A1.776 1.776 0 00401.776 0zm0 0" transform="translate(-370.401)" fill="#1c1d23"/></svg>