<svg id="increase" xmlns="http://www.w3.org/2000/svg" width="34.999" height="26.659"><path id="Path_2756" data-name="Path 2756" d="M34.1 109.2a4.1 4.1 0 114.1-4.1 4.106 4.106 0 01-4.1 4.1z" transform="translate(-27.949 -98.266)" fill="#1c1d23"/><path id="Path_2757" data-name="Path 2757" d="M244.1 69.2a4.1 4.1 0 114.1-4.1 4.106 4.106 0 01-4.1 4.1z" transform="translate(-223.594 -61)" fill="#1c1d23"/><path id="Path_2758" data-name="Path 2758" d="M33.973 161h-4.1a1.025 1.025 0 000 2.051H31.5l-10.514 10.512-2.693-2.693a1.025 1.025 0 00-1.45 0l-7.9 7.9H1.025a1.025 1.025 0 000 2.051h8.34a1.025 1.025 0 00.725-.3l7.478-7.478 2.693 2.693a1.025 1.025 0 001.45 0L32.948 164.5v1.626a1.025 1.025 0 102.051 0v-4.1A1.025 1.025 0 0033.973 161z" transform="translate(0 -154.164)" fill="#1c1d23"/><path id="Path_2759" data-name="Path 2759" d="M219.551 195.978a6.139 6.139 0 01-6.8 0 6.146 6.146 0 00-2.751 5.128v1.939l1.038-1.038a3.076 3.076 0 014.35 0l1.243 1.243 4.981-4.981a6.181 6.181 0 00-2.061-2.291z" transform="translate(-195.645 -186.751)" fill="#1c1d23"/><path id="Path_2760" data-name="Path 2760" d="M2.753 235.978A6.146 6.146 0 000 241.106v5.469h8.091l4.214-4.213v-1.255a6.146 6.146 0 00-2.753-5.128 6.139 6.139 0 01-6.8 0z" transform="translate(0 -224.017)" fill="#1c1d23"/></svg>