<svg id="Group_1492" data-name="Group 1492" xmlns="http://www.w3.org/2000/svg" width="23.846" height="26.149"><path id="Path_2749" data-name="Path 2749" d="M186.806 66.059a1.441 1.441 0 11-1.442 1.442 1.441 1.441 0 011.442-1.442z" transform="translate(-173.666 -61.479)" fill="#5d5d5d"/><path id="Path_2750" data-name="Path 2750" d="M39.881 12.093a.648.648 0 00-.613-.056l-7.261 3.092-1.607-.684c1.239-1.748 4.525-6.612 4.525-9.007a5.437 5.437 0 10-10.875 0c0 2 2.287 5.714 3.766 7.908l-3.071-1.308-.02-.006a.693.693 0 00-.083-.023.557.557 0 00-.072-.016.605.605 0 00-.081 0 .593.593 0 00-.08 0 1.255 1.255 0 00-.155.039c-.007 0-.014 0-.019.006l-7.516 3.2a.649.649 0 00-.4.6V25.5a.652.652 0 00.65.65.656.656 0 00.255-.052L24.493 23l7.26 3.092c.015.007.031.009.047.014a.4.4 0 00.044.013.64.64 0 00.164.025.617.617 0 00.164-.025l.044-.013c.015-.005.031-.008.047-.014l7.515-3.2a.65.65 0 00.4-.6v-9.657a.651.651 0 00-.297-.542zm-16.039 9.775l-6.215 2.646v-8.248l6.215-2.647zM27.258 5.9a2.232 2.232 0 112.232 2.233A2.234 2.234 0 0127.258 5.9zm4.1 18.613l-6.214-2.646V13.62l6.214 2.647zm7.515-2.646l-6.215 2.646v-8.247l6.215-2.647z" transform="translate(-16.327)" fill="#5d5d5d"/></svg>