<svg id="Group_1512" data-name="Group 1512" xmlns="http://www.w3.org/2000/svg" width="32.941" height="32.942"><path id="Path_2750" data-name="Path 2750" d="M25.05 64.766a2.308 2.308 0 00-3.489 0 207.29 207.29 0 00-2.433 2.44.481.481 0 01-.672.123c-.528-.288-1.09-.521-1.6-.836a25.306 25.306 0 01-6.1-5.552 14.454 14.454 0 01-2.187-3.5.5.5 0 01.123-.644c.816-.788 1.611-1.6 2.413-2.406a2.317 2.317 0 00-.007-3.571c-.638-.644-1.275-1.275-1.913-1.919-.658-.658-1.309-1.323-1.974-1.974a2.323 2.323 0 00-3.489.007c-.823.809-1.611 1.638-2.447 2.433A3.972 3.972 0 00.03 52.044a11.356 11.356 0 00.877 4.888 29.7 29.7 0 005.271 8.781 32.621 32.621 0 0010.8 8.452 15.624 15.624 0 005.984 1.741 4.386 4.386 0 003.763-1.433c.7-.781 1.488-1.494 2.228-2.242a2.332 2.332 0 00.014-3.551q-1.95-1.963-3.917-3.914z" transform="translate(-.006 -42.975)" fill="#1c1d23"/><path id="Path_2751" data-name="Path 2751" d="M245.285 105.748l2.529-.432A11.354 11.354 0 00238.21 96l-.356 2.543a8.775 8.775 0 017.431 7.2z" transform="translate(-221.55 -89.419)" fill="#1c1d23"/><path id="Path_2752" data-name="Path 2752" d="M253.8 5.333A18.651 18.651 0 00243.11 0l-.356 2.543a16.275 16.275 0 0113.772 13.347l2.529-.432A18.788 18.788 0 00253.8 5.333z" transform="translate(-226.114)" fill="#1c1d23"/></svg>