<svg id="Group_1483" data-name="Group 1483" xmlns="http://www.w3.org/2000/svg" width="31.565" height="35.594"><path id="Path_2710" data-name="Path 2710" d="M146.415 166.337H160a.521.521 0 000-1.043h-13.585a.521.521 0 000 1.043z" transform="translate(-137.766 -153.803)" fill="#fff"/><path id="Path_2711" data-name="Path 2711" d="M146.416 210.462h4.839a.521.521 0 000-1.043h-4.839a.521.521 0 000 1.043z" transform="translate(-137.767 -194.86)" fill="#fff"/><path id="Path_2712" data-name="Path 2712" d="M146.415 342.839h7.759a.521.521 0 100-1.043h-7.759a.521.521 0 100 1.043z" transform="translate(-137.766 -318.034)" fill="#fff"/><path id="Path_2713" data-name="Path 2713" d="M184.046 109.34h8.354a.521.521 0 100-1.043h-8.349a.521.521 0 000 1.043z" transform="translate(-172.781 -100.768)" fill="#fff"/><path id="Path_2714" data-name="Path 2714" d="M59.655 23.407l-.885.885v-.127a.87.87 0 00-.87-.865h-1.03v-1.066h1.03a.87.87 0 00.869-.869v-.856a.521.521 0 00-1.043 0v.682h-6.632v-6.635h6.634v1l-2.863 2.863-1.875-1.878a.521.521 0 00-.737.737l2.247 2.244a.521.521 0 00.737 0l2.494-2.494v1.048a.521.521 0 001.043 0v-2.091l1.622-1.622a.521.521 0 10-.737-.737l-.885.885v-.127a.87.87 0 00-.869-.869h-1.03v-9.8a.731.731 0 00-.73-.73h-2.261V.73a.731.731 0 00-.73-.73H29.711a.731.731 0 00-.73.73v31.146a.731.731 0 00.73.73h2.259v2.259a.731.731 0 00.73.73h23.442a.731.731 0 00.73-.73v-2.849H57.9a.87.87 0 00.869-.869v-5.38l1.622-1.622a.521.521 0 00-.737-.737zm-1.928 1.928L54.865 28.2l-1.875-1.877a.521.521 0 00-.737.737L54.5 29.3a.521.521 0 00.737 0l2.494-2.494v4.163h-2.12a.521.521 0 000 1.043h.221v2.536h-22.82V4.031h4.8a.521.521 0 000-1.043H32.7a.731.731 0 00-.73.73v27.845h-1.946V1.043h22.817v1.946h-12.6a.521.521 0 100 1.043h15.588v9.482H50.92a.87.87 0 00-.869.869v.176h-5.635a.521.521 0 100 1.043h5.635v2.025H37.63a.521.521 0 100 1.043h12.421v2.025H37.63a.521.521 0 100 1.043h12.506a.869.869 0 00.784.5h4.909V23.3H50.92a.869.869 0 00-.769.466h-2.815a.521.521 0 000 1.043h2.715v2.025H37.63a.521.521 0 100 1.043h12.421V29.9H37.63a.521.521 0 000 1.043h12.421v.207a.87.87 0 00.869.869h2.255a.521.521 0 100-1.043h-2.081v-6.638h6.634v1z" transform="translate(-28.981)" fill="#fff"/></svg>