<svg id="discount" xmlns="http://www.w3.org/2000/svg" width="30.852" height="32.154"><g id="Group_1514" data-name="Group 1514"><g id="Group_1513" data-name="Group 1513"><path id="Path_2764" data-name="Path 2764" d="M39.724 16.491a.942.942 0 010-.833l1.2-2.453a2.791 2.791 0 00-1.2-3.707l-2.412-1.28a.942.942 0 01-.49-.674l-.472-2.69a2.791 2.791 0 00-3.153-2.291l-2.7.382a.942.942 0 01-.797-.255L27.734.791a2.791 2.791 0 00-3.9 0l-1.963 1.9a.943.943 0 01-.792.257l-2.7-.382a2.791 2.791 0 00-3.153 2.291l-.472 2.69a.942.942 0 01-.49.674L11.852 9.5a2.791 2.791 0 00-1.2 3.707l1.2 2.453a.942.942 0 010 .833l-1.2 2.453a2.791 2.791 0 001.2 3.707l2.412 1.28a.942.942 0 01.49.674l.472 2.69a2.79 2.79 0 002.752 2.319 2.869 2.869 0 00.4-.028l2.7-.382a.942.942 0 01.792.257l1.963 1.9a2.791 2.791 0 003.9 0l1.963-1.9a.943.943 0 01.792-.257l2.7.382a2.791 2.791 0 003.153-2.291l.472-2.69a.943.943 0 01.49-.674l2.412-1.28a2.791 2.791 0 001.2-3.707zM22.076 7.73a3.4 3.4 0 11-3.4 3.4 3.4 3.4 0 013.4-3.4zm-1.755 15.12a.927.927 0 01-1.311-1.311L31.249 9.3a.927.927 0 011.311 1.311zm9.173 1.57a3.4 3.4 0 113.4-3.4 3.4 3.4 0 01-3.4 3.4z" transform="translate(-10.359 .002)" fill="#1c1d23"/></g></g><g id="Group_1516" data-name="Group 1516" transform="translate(17.59 19.477)"><g id="Group_1515" data-name="Group 1515"><path id="Path_2765" data-name="Path 2765" d="M292 310.141a1.545 1.545 0 101.545 1.545 1.547 1.547 0 00-1.545-1.545z" transform="translate(-290.452 -310.141)" fill="#1c1d23"/></g></g><g id="Group_1518" data-name="Group 1518" transform="translate(10.172 9.586)"><g id="Group_1517" data-name="Group 1517"><path id="Path_2766" data-name="Path 2766" d="M173.878 152.646a1.545 1.545 0 101.545 1.545 1.547 1.547 0 00-1.545-1.545z" transform="translate(-172.333 -152.646)" fill="#1c1d23"/></g></g></svg>