<svg id="speedometer" xmlns="http://www.w3.org/2000/svg" width="36.795" height="31.742"><path id="Path_2767" data-name="Path 2767" d="M96.836 35.154a18.271 18.271 0 00-11.163 4.625l4.81 4.81a11.529 11.529 0 016.352-2.632z" transform="translate(-79.516 -35.154)" fill="#1c1d23"/><path id="Path_2768" data-name="Path 2768" d="M9.452 125.532l-4.81-4.81a18.27 18.27 0 00-4.631 11.163h6.8a11.531 11.531 0 012.638-6.353z" transform="translate(-.01 -114.573)" fill="#1c1d23"/><path id="Path_2769" data-name="Path 2769" d="M383.249 131.885h6.8a18.269 18.269 0 00-4.631-11.163l-4.81 4.81a11.53 11.53 0 012.641 6.353z" transform="translate(-353.258 -114.573)" fill="#1c1d23"/><path id="Path_2770" data-name="Path 2770" d="M401.668 306.055a11.482 11.482 0 01-1.185 4.156c.547.843 1 1.555 1.3 2.029a3.238 3.238 0 01-1.328 4.653l1.12 1.12a1.08 1.08 0 001.527 0 18.292 18.292 0 005.369-11.958z" transform="translate(-371.679 -286.587)" fill="#1c1d23"/><path id="Path_2771" data-name="Path 2771" d="M6.806 306.055H0a18.293 18.293 0 005.369 11.958 1.08 1.08 0 001.527 0l3.271-3.271a1.08 1.08 0 000-1.527 11.572 11.572 0 01-3.36-7.16z" transform="translate(0 -286.587)" fill="#1c1d23"/><path id="Path_2772" data-name="Path 2772" d="M282.163 39.779A18.271 18.271 0 00271 35.154v6.8a11.529 11.529 0 016.352 2.632z" transform="translate(-251.525 -35.154)" fill="#1c1d23"/><path id="Path_2773" data-name="Path 2773" d="M214.672 245.185a3.387 3.387 0 00-4.79 4.79c1.668 1.668 9.868 6.9 10.8 7.5a1.078 1.078 0 001.488-1.488c-.594-.934-5.83-9.134-7.498-10.802z" transform="translate(-193.879 -229.172)" fill="#1c1d23"/></svg>