<svg id="top-secret" xmlns="http://www.w3.org/2000/svg" width="25.025" height="30.83"><path id="Path_2761" data-name="Path 2761" d="M183.557 138.7a1.659 1.659 0 00-3.319 0v3.535h3.319V138.7zm0 0" transform="translate(-169.385 -128.791)" fill="#1c1d23"/><path id="Path_2762" data-name="Path 2762" d="M24.425 1.8A38.723 38.723 0 0012.513 0 38.727 38.727 0 00.6 1.8a.9.9 0 00-.6.851v22.538a.9.9 0 00.462.788c.088.049 2.175 1.213 4.685 2.4C8.6 30 11.079 30.83 12.513 30.83s3.913-.826 7.366-2.456a80.599 80.599 0 004.684-2.4.9.9 0 00.463-.788V2.653a.9.9 0 00-.6-.851zM6.1 14.349a.9.9 0 01.9-.9h.839V9.912a4.67 4.67 0 119.34 0v3.535h.839a.9.9 0 01.9.9v7.372a.9.9 0 01-.9.9H7a.9.9 0 01-.9-.9zm0 0" fill="#1c1d23"/><path id="Path_2763" data-name="Path 2763" d="M193.7 266.02a.9.9 0 00-.9.9v2.271a.9.9 0 101.806 0v-2.271a.9.9 0 00-.906-.9zm0 0" transform="translate(-181.188 -250.001)" fill="#1c1d23"/></svg>