<svg id="user" xmlns="http://www.w3.org/2000/svg" width="16.551" height="19.838"><path id="Path_2707" data-name="Path 2707" d="M91.81 9.556a4.623 4.623 0 003.378-1.4 4.623 4.623 0 001.4-3.378 4.624 4.624 0 00-1.4-3.378 4.777 4.777 0 00-6.757 0 4.623 4.623 0 00-1.4 3.378 4.623 4.623 0 001.4 3.378 4.624 4.624 0 003.379 1.4zm0 0" transform="translate(-83.66)" fill="#a2a2a2"/><path id="Path_2708" data-name="Path 2708" d="M16.511 252.988a11.8 11.8 0 00-.161-1.253 9.875 9.875 0 00-.308-1.26 6.225 6.225 0 00-.518-1.175 4.436 4.436 0 00-.781-1.018 3.445 3.445 0 00-1.122-.705 3.879 3.879 0 00-1.433-.259 1.454 1.454 0 00-.777.329c-.233.152-.505.327-.809.522a4.636 4.636 0 01-1.047.461 4.065 4.065 0 01-2.561 0 4.626 4.626 0 01-1.046-.461c-.3-.192-.573-.368-.81-.522a1.452 1.452 0 00-.776-.329 3.874 3.874 0 00-1.433.26 3.442 3.442 0 00-1.122.705 4.436 4.436 0 00-.781 1.018 6.237 6.237 0 00-.518 1.176 9.9 9.9 0 00-.308 1.26 11.761 11.761 0 00-.161 1.254c-.026.38-.04.774-.04 1.171a3.294 3.294 0 00.978 2.492 3.522 3.522 0 002.521.92h9.552a3.521 3.521 0 002.521-.92 3.293 3.293 0 00.978-2.492c0-.4-.014-.794-.04-1.172zm0 0" transform="translate(0 -237.734)" fill="#a2a2a2"/></svg>