<svg id="checklist_1_" data-name="checklist (1)" xmlns="http://www.w3.org/2000/svg" width="30.34" height="30.37"><path id="Path_2805" data-name="Path 2805" d="M61.546 144.152a.916.916 0 001.265-.073l2.227-2.541a.889.889 0 00-1.338-1.17l-1.632 1.862-.437-.4a.889.889 0 10-1.193 1.317z" transform="translate(-56.596 -131.762)"/><path id="Path_2806" data-name="Path 2806" d="M172.807 182.345h-5.13a.888.888 0 100 1.776h5.13a.888.888 0 100-1.776z" transform="translate(-156.917 -171.537)"/><path id="Path_2807" data-name="Path 2807" d="M71.327 244.5H59.8a.888.888 0 100 1.776h11.527a.888.888 0 100-1.776z" transform="translate(-55.437 -230.008)"/><path id="Path_2808" data-name="Path 2808" d="M61.546 315.932a.915.915 0 001.265-.074l2.227-2.541a.889.889 0 00-1.338-1.17l-1.632 1.862-.437-.4a.889.889 0 10-1.193 1.317z" transform="translate(-56.596 -293.36)"/><path id="Path_2809" data-name="Path 2809" d="M172.807 354.07h-5.13a.888.888 0 100 1.776h5.13a.888.888 0 100-1.776z" transform="translate(-156.917 -333.083)"/><path id="Path_2810" data-name="Path 2810" d="M71.327 415.337H59.8a.888.888 0 100 1.776h11.527a.888.888 0 100-1.776z" transform="translate(-55.437 -390.718)"/><path id="Path_2811" data-name="Path 2811" d="M28.422 0h-16.93a1.553 1.553 0 00-.544.106A2.924 2.924 0 0010.4.054a2.9 2.9 0 00-2.744 1.962h-.95A1.269 1.269 0 005.441 3.2H2.306A2.056 2.056 0 00.251 5.252v23.065a2.056 2.056 0 002.055 2.053h16.183a2.058 2.058 0 001.984-1.518h8.1a2.2 2.2 0 002.019-2.167V2.167A2.17 2.17 0 0028.422 0zM7.215 3.792h1.179a.889.889 0 00.889-.87 1.115 1.115 0 012.23 0 .889.889 0 00.889.87h1.178v.978H7.215zm11.551 24.525a.277.277 0 01-.277.276H2.306a.277.277 0 01-.277-.276V5.252a.277.277 0 01.277-.276h3.131v.189a1.385 1.385 0 001.384 1.382h7.152a1.385 1.385 0 001.384-1.383v-.188h3.131a.277.277 0 01.277.276zm10.047-1.632a.389.389 0 01-.345.387h-7.926V5.252A2.056 2.056 0 0018.489 3.2h-3.136a1.28 1.28 0 00-1.275-1.183h-.939a3.067 3.067 0 00-.095-.24h15.378a.391.391 0 01.391.39z" transform="translate(-.251)"/></svg>