<svg xmlns="http://www.w3.org/2000/svg" width="21.92" height="15.619"><g fill="#fff"><path data-name="Path 19" d="M21.902 1.571c0-.025.017-.049.016-.074l-6.689 6.446 6.681 6.24c0-.045-.008-.09-.008-.135z"/><path data-name="Path 20" d="M14.21 8.934l-2.731 2.627a.714.714 0 01-.982.008L7.774 9.034l-6.725 6.482a1.55 1.55 0 00.523.1h18.825a1.548 1.548 0 00.752-.207z"/><path data-name="Path 21" d="M10.976 10.064L21.185.23a1.547 1.547 0 00-.789-.23H1.572a1.551 1.551 0 00-.988.368z"/><path data-name="Path 22" d="M0 1.811v12.236a1.553 1.553 0 00.067.405l6.642-6.4z"/></g></svg>