<svg xmlns="http://www.w3.org/2000/svg" width="21.92" height="15.619"><g id="email" transform="translate(0 -33.085)" fill="#fff"><path id="Path_19" data-name="Path 19" d="M166.6 48.88c0-.025.017-.049.016-.074l-6.689 6.446 6.681 6.24c0-.045-.008-.09-.008-.135z" transform="translate(-144.698 -14.224)"/><path id="Path_20" data-name="Path 20" d="M24.171 126.9l-2.731 2.627a.714.714 0 01-.982.008L17.735 127l-6.725 6.482a1.55 1.55 0 00.523.1h18.825a1.548 1.548 0 00.752-.207z" transform="translate(-9.961 -84.881)"/><path id="Path_21" data-name="Path 21" d="M16.522 43.149l10.209-9.834a1.547 1.547 0 00-.789-.23H7.118a1.551 1.551 0 00-.988.368z" transform="translate(-5.546)"/><path id="Path_22" data-name="Path 22" d="M0 52.1v12.236a1.553 1.553 0 00.067.405l6.642-6.4z" transform="translate(0 -17.204)"/></g></svg>