<svg id="Group_1525" data-name="Group 1525" xmlns="http://www.w3.org/2000/svg" width="26.278" height="29.6"><path id="Path_2818" data-name="Path 2818" d="M96.843 137.8H82.668a.435.435 0 000 .871h14.176a.435.435 0 100-.871z" transform="translate(-79.14 -129.837)"/><path id="Path_2819" data-name="Path 2819" d="M82.668 86.428h7.087a.435.435 0 000-.871h-7.087a.435.435 0 000 .871z" transform="translate(-79.14 -80.611)"/><path id="Path_2820" data-name="Path 2820" d="M96.843 184.1H82.668a.435.435 0 000 .871h14.176a.435.435 0 100-.871z" transform="translate(-79.14 -173.453)"/><path id="Path_2821" data-name="Path 2821" d="M35.488 26.575h-4.537a1.352 1.352 0 01-1.35-1.35v-23a1.352 1.352 0 011.35-1.35H44.02a.932.932 0 01.125.009V3.6a2.224 2.224 0 002.221 2.221h2.716a.924.924 0 01.009.125v7.415a.435.435 0 00.871 0V5.942a1.777 1.777 0 00-.524-1.265L45.285.524A1.776 1.776 0 0044.02 0H30.951a2.224 2.224 0 00-2.221 2.221v23a2.224 2.224 0 002.221 2.221h4.536a.435.435 0 100-.871zM48.475 4.946h-2.109a1.352 1.352 0 01-1.35-1.35V1.487z" transform="translate(-28.73)"/><path id="Path_2822" data-name="Path 2822" d="M110.054 259.6l-3.689-6.228a.954.954 0 00-1.308-.335l-.9.532a1.7 1.7 0 00-.752 1.988 1.335 1.335 0 01-.939-.01c-.709-.223-1.247-.671-2.137-.446-1.511.385-1.465.365-1.6.412a2.327 2.327 0 00-2.355-.29l-.837.324a1.339 1.339 0 01-1.173-.1l-.228-.135a1.7 1.7 0 00-.812-1.744l-.9-.532a.956.956 0 00-1.308.335l-3.69 6.228a.954.954 0 00.335 1.308l.9.532a1.692 1.692 0 00.865.237 1.714 1.714 0 00.93-.275l.187.11-.395.55a1.459 1.459 0 001.412 2.293 1.458 1.458 0 001.665 1.2 1.459 1.459 0 002.014 1.1 1.459 1.459 0 002.481.41l1.049.622a1.462 1.462 0 002.2-1.082 1.46 1.46 0 002.2-1.149 1.46 1.46 0 001.809-1.263 1.461 1.461 0 001.651-2.3l.578-.338a1.7 1.7 0 001.516-.108l.9-.532a.954.954 0 00.335-1.308zm-20.949 1.091l-.9-.532a.084.084 0 01-.03-.115l3.69-6.228a.084.084 0 01.115-.029l.9.532a.831.831 0 01.292 1.139l-2.927 4.942a.832.832 0 01-1.139.292zm1.986 2.7a.589.589 0 01-.135-.822l.58-.808a.589.589 0 01.957.687l-.58.808a.59.59 0 01-.822.135zm1.665 1.2a.59.59 0 01-.135-.822l.58-.808.641-.892a.585.585 0 01.383-.238.592.592 0 01.1-.008.589.589 0 01.477.933l-1.221 1.7a.589.589 0 01-.825.13zm1.665 1.2a.59.59 0 01-.135-.822l1.221-1.7a.589.589 0 11.957.687l-.542.756-.678.945a.59.59 0 01-.823.125zm1.937.816a.59.59 0 01-.135-.822l.406-.566a.589.589 0 01.957.687l-.406.565a.59.59 0 01-.822.129zm9.76-3.472a.59.59 0 01-.808.207l-3.854-2.283a.435.435 0 00-.444.749l2.914 1.726a.589.589 0 01-.6 1.014l-2.915-1.727a.435.435 0 00-.444.749l2.147 1.272a.589.589 0 01-.6 1.014l-1.152-.683-.841-.5a.435.435 0 10-.444.749l.841.5a.589.589 0 11-.6 1.014l-.981-.581a1.459 1.459 0 00-.981-2.232 1.459 1.459 0 00-1.593-1.953 1.46 1.46 0 00-2.477-.78 1.459 1.459 0 00-2.03-.521l-.2-.118 2.739-4.623.13.077a2.2 2.2 0 001.93.16l.837-.324a1.285 1.285 0 011.217.026 1.949 1.949 0 00-.494 1.3v1.931a.931.931 0 00.929.931 1.929 1.929 0 001.823-1.3l5.746 3.4a.589.589 0 01.207.807zm3.158-2.968l-.9.532a.832.832 0 01-1.139-.292l-1.372-2.316a.435.435 0 00-.749.444l1.372 2.316c.026.044.054.085.083.125l-.382.223a2.211 2.211 0 00-.222.151l-5.916-3.5a.436.436 0 00-.657.375 1.112 1.112 0 01-.309.827 1.048 1.048 0 01-.745.309.059.059 0 01-.059-.06v-1.931a1.083 1.083 0 01.816-1.049l1.446-.366c.525-.133.821.148 1.607.414a2.2 2.2 0 001.665-.027l.263.444a.435.435 0 10.749-.444l-.518-.874a.831.831 0 01.292-1.139l.9-.532a.084.084 0 01.115.03l3.689 6.228a.084.084 0 01-.029.115z" transform="translate(-83.91 -238.281)"/></svg>