<svg id="home" xmlns="http://www.w3.org/2000/svg" width="30.094" height="29.089"><path id="Path_2803" data-name="Path 2803" d="M44.571 41.14v-.063a2.008 2.008 0 00-2.006-2.006v-9.279l1.806-1.354a.5.5 0 00-.005-.806l-4.308-3.148v-5.475a.5.5 0 00.5-.5V16.5a.5.5 0 00-.5-.5h-5.015a.5.5 0 00-.5.5v2.006a.5.5 0 00.5.5v1.809L31.327 18.1a.5.5 0 00-.592 0L17.7 27.632a.5.5 0 00-.005.806l1.805 1.354v9.278a2.008 2.008 0 00-2.006 2.006v.063a2.006 2.006 0 00.5 3.949h26.08a2.006 2.006 0 00.5-3.949zM35.545 17h4.012v1h-4.012zm.5 4.514v-2.505h3.009v4.741L36 21.517zm-5.015-2.388l12.2 8.913-1.168.876-10.736-7.804a.5.5 0 00-.59 0L20 28.918l-1.168-.876zM16.988 43.083a1 1 0 01.988-1c.026 0 .051.007.077.008a.5.5 0 00.5-.672.986.986 0 01-.065-.34 1 1 0 011-1v4.012h-1.5a1 1 0 01-1-1.008zm21.566 1h-6.018V33.052h6.018zm1 0V32.551a.5.5 0 00-.5-.5h-7.02a.5.5 0 00-.5.5v11.535H20.5V29.8l10.532-7.66 10.531 7.66v14.286zm4.514 0h-1.5v-4.009a1 1 0 011 1 .986.986 0 01-.065.34.5.5 0 00.5.672c.026 0 .052 0 .077-.008a1 1 0 01-.015 2.006z" transform="translate(-15.984 -16)"/><path id="Path_2804" data-name="Path 2804" d="M126.52 272h-6.02a.5.5 0 00-.5.5v7.021a.5.5 0 00.5.5h6.018a.5.5 0 00.5-.5V272.5a.5.5 0 00-.498-.5zm-.5 3.511h-2.006V273h2.006zM123.009 273v2.508H121V273zM121 276.514h2.006v2.508H121zm3.009 2.508v-2.508h2.006v2.508z" transform="translate(-113.479 -255.951)"/><circle id="Ellipse_1083" data-name="Ellipse 1083" cx=".502" cy=".502" r=".502" transform="rotate(-67.5 25.417 -1.852)"/></svg>