<svg xmlns="http://www.w3.org/2000/svg" width="199.254" height="127.472"><g fill="#ffe427"><path data-name="Path 1" d="M59.866 1.225l-1.927 1.212-10.985 14.226L35.969 30.9v4.836l3.955 20.873 3.955 20.86-.625.7a10.144 10.144 0 00-2.131 9.671 3.87 3.87 0 01.268.931 7.131 7.131 0 01-1.174.166A18.741 18.741 0 0031.924 92l-.931.612-.23-.344a25.163 25.163 0 01-1.952-3.687c-.281-.651-.5-1.2-.5-1.225a6.035 6.035 0 01.931.268c2.424.817 4.989-.281 7.043-3.011 3.879-5.155 3.381-11.585-1.365-17.53a16.918 16.918 0 00-3.253-3.164 21.789 21.789 0 00-3.483 3.534l-.408.651-.625-1.212a23.255 23.255 0 00-10-9.467c-4.555-2.3-8.867-2.335-12.185-.1a13.477 13.477 0 00-4.542 5.78 8.265 8.265 0 00-.268 4.134l.179.574.217-.766a7.77 7.77 0 013.61-4.747 3.227 3.227 0 012.067-.459 6.18 6.18 0 014.733 2.194 15.344 15.344 0 013.713 6.341 14.145 14.145 0 01.255 4.721l-.153.919-.919-.332a7.422 7.422 0 00-2.348-.383 6.174 6.174 0 00-2.577.281 12.1 12.1 0 00-1.684.587l-.51.268.931.931a10.188 10.188 0 011.48 1.888 16.072 16.072 0 011.557 4.159c.817 4.5 3.942 8.74 7.272 9.85a7.176 7.176 0 003.981-.089 7.38 7.38 0 003.572-3.113c.4-.638.5-.74.561-.549a16.417 16.417 0 002.45 4.517l.37.434-.753.944a19.79 19.79 0 00-2.641 4.21l-.906 1.812h-.485a5.186 5.186 0 00-2.513.766c-1.978 1.365-2.845 3.751-3.253 8.931a12.509 12.509 0 01-.638 3.8c-.842 1.9-2.246 2.552-3.6 1.7a11.443 11.443 0 01-2.233-2.513c-.281-.459-.179.714.14 1.633.88 2.475 4.083 4.7 6.328 4.376 1.416-.2 2.832-1.276 4.07-3.049.982-1.429 1.4-2.679 1.927-5.818.51-2.973.74-3.8 1.25-4.364l.459-.51.23.536a5.361 5.361 0 00.663 1.059 17.766 17.766 0 011.212 2.118 12.442 12.442 0 002.654 3.942 11.98 11.98 0 003.7 2.513 7.1 7.1 0 003.955.281 10.485 10.485 0 002.845-1.352l.319-.255h-1.081a6.453 6.453 0 01-3.215-.791c-1.2-.6-1.48-1.123-2.73-5-1.136-3.5-2.3-5.474-3.942-6.711a4.782 4.782 0 00-2.769-1.085c-.689-.013-.714-.026-.561-.268.089-.14.612-.97 1.161-1.85s1.25-1.927 1.569-2.322l.587-.714.638.561a31.326 31.326 0 007.119 4.644 36.15 36.15 0 005.627 2.041 2.36 2.36 0 01.727.23c0 .026-.319.549-.7 1.161a6.839 6.839 0 00-1.161 5.359 7.126 7.126 0 001.25 2.832 6.825 6.825 0 004.708 2.029 4.8 4.8 0 004.147-2.092c2.156-2.858 1.748-5.716-.982-6.992a5.206 5.206 0 00-1.212-.408c-2.539-.421-4.466 3.062-2.641 4.8a3.417 3.417 0 001.952.868 1.853 1.853 0 00.931-.319c.255-.179.472-.281.472-.23a5.126 5.126 0 01-1.429 1.9 1.946 1.946 0 01-1.493.37 3.057 3.057 0 01-1.71-.37 4.345 4.345 0 01-1.837-1.646 6.5 6.5 0 01-.179-3.049 7.079 7.079 0 011.48-2.934 4.739 4.739 0 011.263-.791c1.046-.421 4.249-1.416 5.576-1.735a17.236 17.236 0 006.788-3.151 30.425 30.425 0 003.674-3.547 4.4 4.4 0 01.638-.7c.038 0 7.8 6.367 17.224 14.162l17.135 14.162h1.812l17.135-14.162c9.429-7.783 17.186-14.162 17.237-14.162a6.59 6.59 0 01.906.97 20.161 20.161 0 007.8 5.792c.37.153 1.506.5 2.526.766a48.955 48.955 0 015.946 1.888c1.454.74 2.475 2.756 2.5 4.9a3.138 3.138 0 01-1.429 2.935c-2.143 1.454-4.083 1.072-5.155-1.008-.293-.574-.268-.6.268-.23.766.51 1.671.37 2.692-.408 1.748-1.327.8-4.376-1.493-4.9a4.3 4.3 0 00-4.172 2.258c-1.033 2.105.472 5.512 3 6.762a5.717 5.717 0 003.649.242 5.7 5.7 0 004.555-6 6.491 6.491 0 00-1.238-4.019 8.507 8.507 0 01-.689-1.187c.026-.026.7-.217 1.493-.447a31.465 31.465 0 0011.406-6l1.225-1.033.574.727c.472.612 2.411 3.572 2.769 4.223.089.179-.013.2-.676.23a5.436 5.436 0 00-3.407 1.722c-1.454 1.442-2.105 2.7-3.3 6.341-1.25 3.764-1.518 4.21-2.858 4.848a6.861 6.861 0 01-3.139.676l-.97-.013.319.242a9.838 9.838 0 002.756 1.327c2.526.651 5.257-.319 7.706-2.73a12.261 12.261 0 002.616-3.879 16.058 16.058 0 011.314-2.271 5.5 5.5 0 00.714-1.187l.089-.332.37.293c.536.421.817 1.289 1.276 3.815.727 4.108.97 4.887 1.99 6.443 1.557 2.373 3.5 3.5 5.371 3.113a8.064 8.064 0 004.249-2.756 5.657 5.657 0 001.123-2.947l-.038-.459-.421.651a6.372 6.372 0 01-2.322 2.309c-.919.4-1.506.23-2.386-.714s-1.148-1.748-1.391-4.5a27.907 27.907 0 00-.957-5.945c-.829-2.6-2.462-4.121-4.491-4.172l-.791-.026-1.021-1.978a20.1 20.1 0 00-2.794-4.338l-.561-.663.421-.549a17.194 17.194 0 002.411-4.466c.077-.2.153-.14.472.421a9.055 9.055 0 002.756 2.807 6.265 6.265 0 005.818.153 12.1 12.1 0 003.33-2.832 16.141 16.141 0 003.062-6.864 11.474 11.474 0 013.1-5.958l.8-.778-.7-.345a9.133 9.133 0 00-6.851-.268l-.459.191-.14-.8a12.692 12.692 0 01.5-5.754c1-2.909 3.432-6.009 5.486-6.992 2.309-1.11 4.3-.893 6.022.651a8.736 8.736 0 012.233 3.572c.293.97.344 1.046.459.778a8.973 8.973 0 00.025-3.56 12.976 12.976 0 00-4.836-6.6 10.419 10.419 0 00-4.287-1.582c-3.738-.485-8.459 1.365-12.835 5.027a21.42 21.42 0 00-5.218 6.507l-.4.855-.6-.88a18.393 18.393 0 00-3.062-3.139l-.344-.217-.842.74a20.293 20.293 0 00-5.729 8.791 12.276 12.276 0 003.2 12.478c1.812 1.786 3.955 2.4 5.958 1.7l.868-.306-.089.268a29.781 29.781 0 01-2.45 4.912c-.089.128-.37.013-1.225-.549a20.4 20.4 0 00-4.478-2.169 18.231 18.231 0 00-4.147-.829c-.344 0-.651-.038-.676-.1a3.441 3.441 0 01.255-1.046 10.2 10.2 0 00-2.258-9.735l-.638-.7 3.955-20.86 3.955-20.873V30.9l-10.909-14.149-10.921-14.137-1.493-.88a24.239 24.239 0 00-2.513-1.3L136.318 0 99.063.013H61.805zm58.524 3.113c10 1.123 18.245 2.067 18.321 2.092.255.089 21.422 27.253 21.46 27.546.026.2-6.571 35.495-6.928 37.051-.038.14-5.052 5.6-11.138 12.121l-11.075 11.84-14.391 9.912-14.392 9.926h-1.352l-14.392-9.913-14.392-9.926-11.075-11.84c-6.086-6.52-11.1-11.98-11.138-12.121-.357-1.557-6.953-36.847-6.928-37.051.038-.293 21.2-27.457 21.46-27.546.332-.115 36.069-4.108 36.885-4.121.503-.008 9.072.907 19.075 2.03zM50.004 83.429c3.088 2.539 3.164 2.616 3.024 2.935a9.041 9.041 0 01-1.289 1.786l-.4.434.778-.077a4.446 4.446 0 002.246-.893c.242-.179.4-.217.51-.128.089.064 1.646 1.34 3.445 2.832l3.279 2.7-.4.651a10.244 10.244 0 01-2.029 2.437l-.37.242-.6-.51c-.893-.727-3.368-2.552-4.7-3.432a15 15 0 00-4.466-2.143c-4.3-1.314-5.1-1.735-5.767-3.049a2.789 2.789 0 01-.344-1.608 4.516 4.516 0 011.289-3.33 5.064 5.064 0 012.437-1.493c.116.031 1.621 1.217 3.357 2.646zm103.269-2.322a6.138 6.138 0 012.462 2.182 5.686 5.686 0 01.676 2.462 3.927 3.927 0 01-.868 2.284c-.6.714-1.773 1.276-4.3 2.041a31.92 31.92 0 00-3.088 1.1 41.8 41.8 0 00-6.826 4.606c-.842.663-.868.676-1.225.5a3.432 3.432 0 01-.817-.74 14.432 14.432 0 01-1.633-2.475c0-.1 5.422-4.682 6.6-5.563.089-.077.4.051.842.344a4.636 4.636 0 002.348.829h.447l-.638-.714a4.511 4.511 0 01-1.161-1.939c.1-.242 6.137-5.129 6.341-5.129a4.464 4.464 0 01.839.212zM44.811 91.939a23.38 23.38 0 017.209 2.807c2.08 1.212 3.33 2.552 3.343 3.572 0 .523-2.131 1.735-3.993 2.271-4.555 1.327-9.824.23-15.591-3.254a13.3 13.3 0 01-2.922-2.348c-.191-.281-.166-.306.6-.8a15.434 15.434 0 016.788-2.45 18.638 18.638 0 014.566.202zm115.811.179a16.188 16.188 0 013.93 1.416c1.212.676 2.08 1.289 2.029 1.442a15.816 15.816 0 01-3.432 2.7 23.689 23.689 0 01-9.122 3.432 13.113 13.113 0 01-4.057.051 13.157 13.157 0 01-5.576-2.092l-.6-.434.2-.6c.472-1.378 1.939-2.59 4.95-4.083a21.368 21.368 0 017.145-2.143 20.4 20.4 0 014.529.311z"/><path data-name="Path 2" d="M96.42 7.311l-4.81 1.8.561.357.561.344 3.407-.766 3.419-.766.931.357c.51.191.88.383.829.434a24.616 24.616 0 01-2.45.625c-1.3.293-2.411.574-2.475.612a5.427 5.427 0 001.505.612l1.62.549 4.682-.447a48.888 48.888 0 006.724-.893c1.123-.255 2.118-.5 2.195-.549s-.587-.523-1.633-1.123L109.7 7.411l-1.136.14-1.135.128-3.088-1.1c-1.684-.6-3.088-1.1-3.1-1.084s-2.18.821-4.821 1.816z"/><path data-name="Path 3" d="M81.901 9.301c-.1.064-1.748.638-3.636 1.289l-3.458 1.161-.8 2.437-.8 2.424.281.957.281.957-.485 1.161c-.268.651-.5 1.2-.51 1.225a2.4 2.4 0 01-.689-.115l-.638-.153-2.781 1.569a24.812 24.812 0 00-3.6 2.3l-.842.727-.332 2.233-.332 2.22-.715.957c-.689.919-.715.982-.715 1.722v.778l-1.238.089-1.25.089-2.832 2.82-2.851 2.83v.727a2.115 2.115 0 00.064.74c.026 0 3.011-2.156 6.635-4.8 3.84-2.794 6.571-4.874 6.571-4.989a9 9 0 00-.842-2.883 1.757 1.757 0 01-.306-.459c0-.051 1.454-1.161 3.228-2.462l3.215-2.373 2.411-4.593 2.411-4.593 1.225-.893 1.225-.893.855.766.868.766-1.429 2.105-1.429 2.092-1.327.714c-1 .536-1.391.817-1.608 1.174-.6.97-3.037 5.384-3 5.422.026.013 2.5-1.659 5.5-3.738l5.448-3.777 3.432-3.253c1.9-1.786 3.458-3.292 3.458-3.33s-8.178-1.289-8.408-1.263a1.229 1.229 0 00-.255.116z"/><path data-name="Path 4" d="M119.858 10.271a45.684 45.684 0 01-5.741 1.1 24.97 24.97 0 00-3.445.587l-1.786.447-5.014-.064-5.014-.064-.319.638a1.646 1.646 0 00-.255 1.072c.1.485.051.472 2.092.778 1.365.191 1.569.255 1.633.485.191.829 1.965 9.85 1.965 10.028a34.2 34.2 0 01-4.542 3.521c-.026-.026-.217-2.3-.421-5.052s-.383-5.027-.421-5.052a1.349 1.349 0 00-.523.089c-.37.115-.753.459-1.582 1.4a13.392 13.392 0 01-1.174 1.25 2.655 2.655 0 01-.51-.4l-.421-.4.791-.8.791-.791-.676-.4-.676-.383-.485.383a3.381 3.381 0 00-.549.5c-.14.2-.523.128-.8-.179l-.268-.281 2.22-1.7 2.22-1.71.255-.778a3.3 3.3 0 00.23-.791c-.013-.013-1.608-.153-3.534-.306s-3.687-.306-3.9-.332c-.357-.064-.408-.026-.689.587s-.625.893-4.631 3.981l-4.338 3.317.74.383.74.37 2.041-.472 2.029-.472 1.518.14 1.518.14.893-.651c.753-.536.957-.638 1.365-.6s.5.1.638.447l.166.408-1.952 1.391c-1.722 1.225-1.939 1.429-1.978 1.773-.038.447-.166.4 1.506.587a3.924 3.924 0 001.595-.37l1.148-.434.485.332.485.319-.268.37a2.885 2.885 0 01-2.131 1.467 3.608 3.608 0 00-1.059.319 3.369 3.369 0 00.459.612l.459.536h3.241l.753-.766c.676-.689.817-.766 1.212-.74l.447.038.715 4.95c.689 4.81.727 4.963 1.046 5.231.191.153 1.48 1.25 2.883 2.45l2.539 2.169 2.4 5.614c1.314 3.088 2.411 5.665 2.45 5.741.255.485-7.553-7.017-8.574-8.242l-.919-1.1-.8-2.628-.817-2.641-2.08-1.99c-1.506-1.429-2.156-1.978-2.348-1.939-.217.038-.077.357 1.276 2.718l1.531 2.679v2.475l1.8 2.756 1.812 2.756-.077.944c-.064.868-.013 1.148.561 3.19.344 1.225.625 2.322.625 2.424s-1.773 3.751-3.955 8.1l-3.955 7.9-.574-.2-.587-.191.077-.791c.268-2.807.689-10.59.587-10.717a4.5 4.5 0 00-.676-.536l-.549-.4-7.017 5.907c-6.788 5.716-7.03 5.907-7.553 5.92s-.536-.013-.689-.549a4.556 4.556 0 00-.191-.612 28.54 28.54 0 012.182-2.488c2.143-2.322 2.386-2.641 6.252-8.242l4.019-5.831-.217-.791c-.166-.6-.281-.8-.523-.893a1.159 1.159 0 00-.421-.089c-.051.026-.766.855-1.582 1.85a22.7 22.7 0 01-1.582 1.824 2.156 2.156 0 01-.434-.574l-.37-.574.434-.6c.242-.344 1.378-2.794 2.513-5.461l2.067-4.848-.077-.829c-.089-.791-.115-.842-.6-1.187a1.625 1.625 0 00-.549-.319c-.026.026-1.595 2.335-3.509 5.142s-3.547 5.18-3.636 5.282c-.128.128-.293.14-.663.051-.472-.1-.485-.128-.51-.676s.026-.638 1.416-2.424a11.154 11.154 0 001.365-1.939 5.038 5.038 0 00-1.046-.166l-.97-.089-1.046 1.416a9.718 9.718 0 01-1.161 1.416 1.49 1.49 0 00-.306.077c-.14.051-.281-.115-.536-.612-.179-.37-.357-.689-.37-.714a.838.838 0 00-.383.051c-.268.064-.421.255-.714.906-.255.574-.421.791-.523.727s-.434-.293-.766-.523c-.549-.4-.638-.421-1.212-.332l-.612.1-.115.676c-.064.357-.166.663-.23.663a15.726 15.726 0 01-1.505-.574c-1.327-.549-1.416-.574-2.029-.434-.727.153-.6-.089-1.238 2.36-.293 1.148-.319 1.365-.166 1.467.1.051.536.344.982.651l.817.549.944 2.284.944 2.284-1.671 1.608c-.931.88-1.71 1.62-1.761 1.633s-1.914-.791-4.147-1.8l-4.083-1.824-1.187-3.368c-.663-1.837-1.174-3.432-1.161-3.509a27.089 27.089 0 012.373-2.143c1.276-1.084 2.322-2.029 2.322-2.08a7.876 7.876 0 00-1.544-.51l-1.531-.408L56 44.87l-1.298 1.24-.408-.434a96.994 96.994 0 00-1.225-1.378l-.829-.919-2.105.319c-1.148.179-2.118.344-2.131.37s.625.944 1.429 2.067l1.467 2.029v3.751l1.212 1.123a15.155 15.155 0 011.209 1.191 9.075 9.075 0 01-1.238.638c-.689.306-1.276.574-1.289.587a10.783 10.783 0 00-.14 1.352 3.973 3.973 0 00.383 2.539l.472 1.225-.306 1.454a13.9 13.9 0 00-.281 1.659 18.206 18.206 0 002.016 2.029c1.084 1.008 2.182 2.016 2.437 2.258l.472.447 1-.663c.561-.37 1.033-.7 1.072-.727a17.187 17.187 0 00-1.021-2.131l-1.072-2.067 1.008-1.8c.8-1.467 1.033-1.786 1.2-1.71.115.064 1.671.753 3.458 1.544s3.56 1.633 3.917 1.863c.638.408.663.447.6.842-.1.561-.166.6-1.646 1.4A41.988 41.988 0 0060.28 67.8c-1.544 1.187-2.845 2.194-2.9 2.233a4.129 4.129 0 00.128 1.352l.23 1.276-.281.638a3.036 3.036 0 00-.293.893 8.113 8.113 0 00.472 1.429l.485 1.187 1.505-1.518 1.518-1.518 2.118.064 2.131.077 1.123-.536 1.136-.523.434.268.421.268-.625.714c-.344.408-.829.931-1.084 1.174l-.459.434.587.6.574.587 1.939-.74c1.059-.421 1.939-.753 1.965-.753a10.877 10.877 0 01.612 1.391c.064.2-.166.523-1.084 1.544l-1.174 1.276.306.357c.166.191 3.56 3.866 7.54 8.153l7.247 7.808.893-.587a7.938 7.938 0 00.88-.625c0-.026-.447-.957-1.008-2.067l-1-2.016-.089-3.636c-.051-1.99-.115-3.853-.153-4.134a1.173 1.173 0 01.332-1.046l.4-.549.51.255c.268.14.5.332.5.421s.37 2.641.8 5.665l.786 5.523 4.784 6.111 4.785 6.124.638-.077a5.605 5.605 0 00.676-.1c.026-.026-.332-6.341-.791-14.047-.753-12.529-.868-14.086-1.1-14.66a4.373 4.373 0 01-.255-1.34c0-.689.038-.766 1.25-2.5.676-.982 4.363-5.984 8.191-11.126 5.461-7.324 6.966-9.263 6.992-9.02.026.191-1.187 2.858-3.356 7.375l-3.407 7.081.2 7.323c.281 9.837.255 10.258-.255 4.261-.23-2.794-.447-5.1-.472-5.142a38.029 38.029 0 00-3.317 2.016c-.064.051.013 4.274.166 9.4l.293 9.314-.421 1.187a22.006 22.006 0 00-.829 4.708c-.242 1.927-.421 3.509-.4 3.534s.906-.663 1.965-1.505c1.876-1.518 1.914-1.569 1.735-1.85s.077-.74 6.086-10.794c3.445-5.78 6.29-10.539 6.316-10.577a17.141 17.141 0 00-.332-1.914c-.2-1.008-.383-1.99-.383-2.182a20.379 20.379 0 01.893-2.615l.906-2.271-.217-.8c-.153-.6-.255-.791-.4-.74a3.061 3.061 0 01-.651.153l-.472.077-1.965 3.777c-1.072 2.092-1.978 3.815-2 3.84s-.166-.051-.306-.179c-.217-.2-.255-.4-.255-1.493v-1.25l1.531-2 1.531-2-.574-1.046a5.369 5.369 0 01-.574-1.314c0-.153.868-5.206 1.914-11.228s1.914-11.036 1.927-11.138c.026-.5.332 1.1 1.34 7.081.612 3.623 1.161 6.558 1.212 6.507s.676-3.534 1.391-7.719l1.3-7.617-.319-1.378-.319-1.378.255-.383a8.313 8.313 0 01.842-.906l.574-.51-5.69-6.622c-3.126-3.649-5.678-6.647-5.665-6.66s6.4 1.378 14.188 3.088 14.175 3.088 14.2 3.075c.1-.115-13.409-7.63-15.6-8.689-5.563-2.692-7.209-3.317-9.505-3.624a21.885 21.885 0 01-4.019-.829 1.774 1.774 0 01-.88-1.161 1.379 1.379 0 01-.038-.523 5.389 5.389 0 011.187.128l1.135.191 7.566-2.82c4.147-1.557 7.553-2.858 7.553-2.9a28.26 28.26 0 00-4.274-1.531c-.128-.003-2.081.428-4.325.939z"/><path data-name="Path 5" d="M120.623 15.081c-1.824.625-3.368 1.2-3.432 1.25s.128.179.408.255a8.75 8.75 0 011.748 1.148 14.42 14.42 0 003.751 2.143c1.378.625 3.764 1.659 5.308 2.3l2.807 1.148 2.041-.14 2.041-.128 1.684.714a16.989 16.989 0 001.812.727 1.979 1.979 0 00.574-.268c.408-.23.434-.293.37-.727a1.442 1.442 0 00-.217-.612c-.077-.089-1.2-.715-2.5-1.391s-3.674-2.092-5.295-3.126c-2.348-1.506-7.528-4.491-7.732-4.453-.025.001-1.544.522-3.368 1.16z"/><path data-name="Path 6" d="M118.377 27.954c-.242.191-.383.4-.332.459.421.408 29 19.725 29.026 19.61a3.569 3.569 0 00-.14-.919c-.166-.689-.651-1.429-5.257-7.91l-5.078-7.145-8.893-2.233-8.893-2.22z"/><path data-name="Path 7" d="M79.604 29.996c-2.207.115-4.261.23-4.555.23-.536.013-.549.026-1.327 1.174l-.778 1.161.2.536c.306.791.434.906 1.34 1.276l.817.319 4.1-1.735c2.258-.957 4.223-1.786 4.376-1.863a.33.33 0 00.23-.434c-.038-.153-.089-.434-.128-.612s-.115-.306-.166-.306-1.902.127-4.109.254z"/><path data-name="Path 8" d="M66.972 36.401a959.594 959.594 0 00-3.713 2.832c-.306.242-.332.357-.4 1.505-.051 1.021-.038 1.238.115 1.238.1 0 2.45-1.493 5.218-3.3 4.836-3.177 5.027-3.33 4.746-3.5-.778-.472-2.4-1.365-2.488-1.365-.046 0-1.615 1.161-3.478 2.59z"/><path data-name="Path 9" d="M90.729 34.197c-1.008.447-1 .549.472 3.356l1.289 2.5-.714 1.608-.7 1.608.536.919a3.329 3.329 0 01.523 1.238c-.013.166-.2 1.225-.408 2.348l-.383 2.041.191 2.284.191 2.284.663.753a5.825 5.825 0 00.727.753c.077-.013 3.228-4.389 3.3-4.593a5.148 5.148 0 00-.753-1.161l-.791-1.046.077-2.552.064-2.552-.5-.663-.5-.663v-2.794l-1.25-2.922a27.335 27.335 0 00-1.378-2.947 2.346 2.346 0 00-.656.201z"/><path data-name="Path 10" d="M124.961 40.216c-.038.37-.383 4.121-.766 8.331a90.3 90.3 0 01-1.4 11.368l-.7 3.713.255 1.391c.14.753.255 1.467.255 1.582a4.018 4.018 0 01-1.021 1.033 4.209 4.209 0 00-1.008 1.008 16.616 16.616 0 00.434 1.837l.434 1.646-1.918 4.991a319.904 319.904 0 00-3.19 8.676 39.659 39.659 0 01-4.134 9.008l-1.187 1.978.14 1a2.533 2.533 0 00.23.957c.153-.064 8.855-9.429 8.957-9.646.051-.128.817-3.521 1.7-7.553s1.62-7.349 1.633-7.375a22.634 22.634 0 01.714 2.973c.14.676.115 1.072-.166 3.253-.306 2.258-.319 2.565-.166 3.292a5.256 5.256 0 00.242.88c.179.166 1.416-1.072 1.684-1.684.153-.357 2.246-5.512 4.657-11.457l4.376-10.819-.714-2.258-.714-2.258.191-1.429.2-1.429-1.563-4.729c-.868-2.6-1.582-4.708-1.595-4.7s-.153 2.986-.306 6.6l-.281 6.571-.536.574c-.5.536-.6.74-1.225 2.871-.37 1.263-.715 2.335-.766 2.386s-.472-5.052-.944-11.355c-.536-6.877-.944-11.508-1.021-11.585a.951.951 0 00-.421-.23c-.258-.076-.283-.025-.36.588z"/><path data-name="Path 11" d="M132.144 40.751c-.2.421-.191.447 2.08 6.979 2.118 6.06 2.335 6.749 2.807 9.11l.51 2.552 2.769 6.048 2.769 6.035.076-2.781c.051-1.544.115-6.15.153-10.258l.077-7.464-4.529-4.4a554.001 554.001 0 00-5.524-5.32l-1-.919z"/><path data-name="Path 12" d="M131.085 74.791c-3.84 9.544-4.644 11.189-7.273 14.979-1.084 1.557-1.978 2.883-1.978 2.947a.682.682 0 00.115.281c.1.153.37.089 1.608-.447l1.493-.625 5.052-6.379a1197.78 1197.78 0 015.41-6.826l.357-.459-.383-5.155-.383-5.155-.421-.344a2.669 2.669 0 00-.472-.37c-.037 0-1.441 3.407-3.125 7.553z"/><path data-name="Path 13" d="M25.583 110.299a61.175 61.175 0 01.23 7.336c-.026 1.863-.077 3.56-.128 3.764-.064.357.013.472.663 1.123a25.9 25.9 0 006.762 4.21c.714.332 1.34.6 1.391.6s-.14-.23-.434-.523c-1.518-1.454-2.692-4.389-3.011-7.451-.089-.88-.1-.906-.727-1.4a15.1 15.1 0 01-4.182-6.638c-.6-1.824-.628-1.875-.564-1.021z"/><path data-name="Path 14" d="M173.253 111.154a16.641 16.641 0 01-4.249 6.89l-.689.549-.153 1.25a12.612 12.612 0 01-2.845 7.056l-.536.574 1.021-.459c3.343-1.518 6.354-3.432 7.489-4.733.357-.421.357-.421.217-1.48a62.772 62.772 0 01.013-8.076c.178-2.63.127-2.898-.268-1.571z"/></g></svg>