<svg id="svg" xmlns="http://www.w3.org/2000/svg" width="400" height="212.74"><g id="svgg"><path id="path0" d="M122.206 10.516c-7.433 10.013-7.869 10.515-9.127 10.515-16.3 0-33.864 20.099-34.902 39.94-.19 3.618-.36 4.55-.831 4.55-.445 0-.536-.327-.367-1.315 1.308-7.626 1.176-10.908-.442-11.072a4.98 4.98 0 01-.664-.101c-.091-.027.114-1.097.454-2.376 1.952-7.349-.903-13.845-4.334-9.861l-1.496 1.737-1.469-2.046c-2.832-3.941-7.135-6.265-12.467-6.733-5.978-.525-6.969 1.221-2.062 3.632 8.595 4.222 11.038 7.951 13.011 19.851a592.737 592.737 0 001.461 8.454c.821 4.445 1.586 4.754-8.555-3.451-17.329-14.021-35.977-18.338-49.213-11.392-10.258 5.384-14.33 18.826-8.899 29.38 4.921 9.565 22.004 9.5 25.384-.097 3.213-9.12-5.757-17.225-14.772-13.347-2.25.968-2.336 1.134-1.15 2.208 3.11 2.815 2.955 6.316-.28 6.316-7.559 0-7.126-16.267.563-21.146 10.562-6.702 31.466-2.453 44.372 9.019a224.41 224.41 0 002.831 2.475l1.213 1.038-3.129-.985c-1.721-.541-4.425-1.087-6.009-1.213-3.273-.261-8.904-1.909-9.89-2.894-.362-.363-1.393-1.631-2.29-2.819-2.008-2.66-2.747-2.785-2.747-.468 0 2.055 1.122 4.484 3.037 6.574 1.381 1.508 1.406 1.592.771 2.562-1.044 1.592-.273 1.896 4.382 1.726 2.537-.093 2.731-.04 2.731.751 0 1.133 2.034 1.153 4.838.048l2.037-.803v.997c0 1.259 1.293 1.645 3.51 1.048 1.759-.474 6.041.463 8.987 1.966 3.484 1.778 10.89 11.79 17.579 23.765 4.21 7.538 8.96 13.065 14.238 16.57 1.827 1.213 2.574 2.21 2.597 3.468.018 1.024-5.35-1.381-9.095-4.075-6.788-4.882-11.845-8.785-15.571-12.017-24.043-20.852-43.397-24.193-51.283-8.853-.45.873-1.402 2.134-2.117 2.801-5.576 5.204-.343 13.883 6.617 10.975 4.401-1.839 5.061-8.298 1.144-11.194l-1.233-.911.768-1.504c5.554-10.888 21.017-8.35 39.675 6.514 3.145 2.505 5.437 4.66 4.106 3.86-.453-.272-1.526-.477-6.777-1.298-5.879-.918-9.511-3.074-10.517-6.243-.584-1.84-1.374-1.193-1.142.934.346 3.168 1.457 5.395 3.206 6.427 1.433.846 1.462.903.629 1.275-3.267 1.458 2.218 3.65 5.762 2.303.978-.372 1.013-.335.785.809-.283 1.412.645 1.593 3.349.653 3.12-1.085 3.735-1.143 3.524-.335-.359 1.37.865 1.87 3.424 1.401 2.57-.471 4.826-.278 5.742.491.334.281 3.701 2.464 7.482 4.853 9.519 6.013 9.619 6.232.809 1.758-17.545-8.908-29.277-9.048-35.511-.423-5.678 7.856-.601 21.594 6.775 18.331 5.214-2.307 3.945-9.347-1.685-9.352-4.136-.003-5.7-2.566-4.019-6.586.789-1.889 1.882-2.731 1.884-1.453.007 4.789 7.522 6.791 14.445 3.849 2.528-1.074 4.627-1.491 3.349-.664-.334.215-1.541.666-2.682 1.002-5.063 1.488-1.566 5.121 5.529 5.744 2.769.243 2.911.197 7.264-2.347l1.416-.828-1.315 1.176c-5.465 4.889 5.651 5.861 13.044 1.14 1.065-.679 1.027-.598-.304.667-3.574 3.397-.512 6.255 5.62 5.247 2.448-.403 4.311 1.578 2.53 2.69-.643.402-.768.971-.768 3.489 0 2.938-.032 3.034-1.355 4.043-4.054 3.092-8.317 16.839-5.955 19.201l.889.889 2.003-3.298c5.081-8.365 9.122-12.189 14.517-13.736 1.04-.299 80.383 64.662 82.766 67.764.577.75 1.761.75 2.338 0 2.383-3.102 81.726-68.063 82.766-67.764 5.395 1.547 9.436 5.371 14.517 13.736l2.003 3.298.889-.889c2.362-2.362-1.901-16.109-5.955-19.201-1.323-1.009-1.355-1.105-1.355-4.043 0-2.518-.125-3.087-.768-3.489-1.781-1.112.082-3.093 2.53-2.69 6.132 1.008 9.194-1.85 5.62-5.247-1.331-1.265-1.369-1.346-.304-.667 7.393 4.721 18.509 3.749 13.044-1.14l-1.315-1.176 1.416.828c4.353 2.544 4.495 2.59 7.264 2.347 7.095-.623 10.592-4.256 5.529-5.744-1.141-.336-2.348-.787-2.682-1.002-1.278-.827.821-.41 3.349.664 6.923 2.942 14.438.94 14.445-3.849.002-1.278 1.095-.436 1.884 1.453 1.681 4.02.117 6.583-4.019 6.586-5.63.005-6.899 7.045-1.685 9.352 7.376 3.263 12.453-10.475 6.775-18.331-6.234-8.625-17.966-8.485-35.511.423-8.81 4.474-8.71 4.255.809-1.758 3.781-2.389 7.148-4.572 7.482-4.853.916-.769 3.172-.962 5.742-.491 2.559.469 3.783-.031 3.424-1.401-.211-.808.404-.75 3.524.335 2.704.94 3.632.759 3.349-.653-.228-1.144-.193-1.181.785-.809 3.544 1.347 9.029-.845 5.762-2.303-.833-.372-.804-.429.629-1.275 1.749-1.032 2.86-3.259 3.206-6.427.232-2.127-.558-2.774-1.142-.934-1.006 3.169-4.638 5.325-10.517 6.243-5.251.821-6.324 1.026-6.777 1.298-1.331.8.961-1.355 4.106-3.86 18.658-14.864 34.121-17.402 39.675-6.514l.768 1.504-1.233.911c-3.917 2.896-3.257 9.355 1.144 11.194 6.96 2.908 12.193-5.771 6.617-10.975-.715-.667-1.667-1.928-2.117-2.801-7.886-15.34-27.24-11.999-51.283 8.853-3.726 3.232-8.783 7.135-15.571 12.017-4.716 3.392-9.419 5.214-8.951 3.468.134-.5.247-1.021.25-1.156.003-.135.977-.891 2.164-1.679 5.318-3.531 10.055-9.038 14.277-16.596 6.689-11.975 14.095-21.987 17.579-23.765 2.946-1.503 7.228-2.44 8.987-1.966 2.217.597 3.51.211 3.51-1.048v-.997l2.037.803c2.804 1.105 4.838 1.085 4.838-.048 0-.791.194-.844 2.731-.751 4.655.17 5.426-.134 4.382-1.726-.635-.97-.61-1.054.771-2.562 1.915-2.09 3.037-4.519 3.037-6.574 0-2.317-.739-2.192-2.747.468-.897 1.188-1.928 2.456-2.29 2.819-.986.985-6.617 2.633-9.89 2.894-1.584.126-4.288.672-6.009 1.213l-3.129.985 1.213-1.038a224.41 224.41 0 002.831-2.475c12.906-11.472 33.81-15.721 44.372-9.019 7.689 4.879 8.122 21.146.563 21.146-3.235 0-3.39-3.501-.28-6.316 1.186-1.074 1.1-1.24-1.15-2.208-9.015-3.878-17.985 4.227-14.772 13.347 3.38 9.597 20.463 9.662 25.384.097 5.431-10.554 1.359-23.996-8.899-29.38-13.236-6.946-31.884-2.629-49.213 11.392-10.141 8.205-9.376 7.896-8.555 3.451.325-1.762.983-5.566 1.461-8.454 1.973-11.9 4.416-15.629 13.011-19.851 4.907-2.411 3.916-4.157-2.062-3.632-5.332.468-9.635 2.792-12.467 6.733l-1.469 2.046-1.496-1.737c-3.431-3.984-6.286 2.512-4.334 9.861.34 1.279.545 2.349.454 2.376a4.98 4.98 0 01-.664.101c-1.618.164-1.75 3.446-.442 11.072.169.988.078 1.315-.367 1.315-.471 0-.641-.932-.831-4.55-1.038-19.841-18.602-39.94-34.902-39.94-1.258 0-1.694-.502-9.127-10.515L269.99 0H130.01l-7.804 10.516m110.91-4.372L264.613 9.1l17.441 22.821c9.592 12.551 17.685 23.202 17.983 23.668.505.788-10.128 64.595-11.171 67.035-.16.375-8.922 9.658-19.47 20.627l-19.178 19.944-24.907 16.74c-13.698 9.207-25.089 16.739-25.311 16.739-.222 0-11.613-7.532-25.311-16.739l-24.907-16.74-19.178-19.944c-10.548-10.969-19.31-20.252-19.47-20.627-.496-1.16-11.707-66.053-11.497-66.547.109-.256 8.195-10.928 17.971-23.716l17.773-23.25 32.107-3.098c17.659-1.704 32.563-3.037 33.119-2.962.556.076 15.185 1.468 32.509 3.093m-39.891 6.061c-3.948 1.813-7.178 3.416-7.178 3.563 0 .222 5.888-.359 14.155-1.397 1.606-.202-3.659 2.192-12.088 5.495-.532.209-.88.466-.774.571.213.214 34.264-3.282 34.527-3.544.213-.213-20.144-7.997-20.895-7.99-.312.003-3.798 1.489-7.747 3.302m-25.936 5.287c.338 1.168.932 2.785 1.321 3.594l.707 1.471-7.243 8.57c-3.983 4.714-7.153 8.661-7.044 8.77.11.109 4.825-2.812 10.48-6.492l10.28-6.692 4.319-5.472c2.376-3.009 4.32-5.562 4.32-5.672 0-.11-3.995-.2-8.876-.2h-8.876l.612 2.123m-7.633 1.378l-4.752 2.654.05 2.686c.028 1.477.164 3.937.304 5.467l.253 2.78 4.651-7.805c2.558-4.293 4.712-7.956 4.786-8.14.261-.647-.585-.27-5.292 2.358m55.713.696c-24.285 2.172-32.567 3.043-33.202 3.494-1.861 1.321-15.504 13.101-15.35 13.254.09.091 3.253-.035 7.028-.279 3.775-.244 7.626-.443 8.559-.443h1.696l-2.676 2.889c-1.471 1.59-2.626 2.937-2.565 2.994.06.057 2.836-.323 6.167-.843 3.332-.521 6.091-.912 6.131-.87.04.042-1.821 1.7-4.136 3.684-2.314 1.984-4.145 3.67-4.069 3.746.076.076 2.758-.488 5.959-1.253 3.202-.766 5.85-1.36 5.886-1.32.036.04.579 4.023 1.207 8.85l1.142 8.778 4.736 3.522 4.737 3.522 2.226 5.294c5.274 12.541 5.859 14.001 5.537 13.802-.188-.116-3.5-2.845-7.361-6.065-3.862-3.22-7.067-5.633-7.124-5.362-.057.27.325 3.853.848 7.961l.951 7.47-7.117 12.921-7.117 12.921-.263-3.404c-.145-1.872-.281-6.835-.303-11.03-.034-6.327-.136-7.59-.602-7.411-.309.118-6.406 4.414-13.549 9.545s-12.988 9.246-12.988 9.144c0-.103 5.285-7.679 11.743-16.836 6.458-9.157 11.67-16.723 11.581-16.812-.089-.089-2.279 1.29-4.867 3.064s-4.705 3.096-4.705 2.937c0-.158 1.638-5.196 3.641-11.196 2.003-5.999 3.595-11.046 3.538-11.216-.056-.17-3.633 3.422-7.947 7.983-4.315 4.561-7.917 8.293-8.005 8.293-.164 0 1.316-2.649 3.016-5.397 1.346-2.176 1.907-2.306-11.395 2.647-13.539 5.041-13.005 4.602-8.286 6.814l1.862.873.902 4.228c1.119 5.241 1.32 4.824-3.657 7.604l-4.155 2.32-6.856-2.77c-8.406-3.396-7.55-2.645-9.533-8.357-2.122-6.113-2.411-5.218 3.217-9.987 2.681-2.272 4.8-4.207 4.708-4.299-.149-.149-18.413-1.738-20.195-1.757-.529-.006.083 1.214 2.48 4.947l3.183 4.954.272 4.651.272 4.652-1.22-1.416c-.67-.779-1.226-1.552-1.235-1.719-.01-.167-.199-.303-.421-.303-.248 0-.405 1.955-.405 5.055v5.056h1.011c1.009 0 1.011.009 1.02 3.943l.008 3.944 4.086 5.579c2.247 3.068 4.14 5.524 4.207 5.458.067-.067-.478-2.851-1.21-6.186-1.428-6.507-1.438-6.372.695-8.854l1.356-1.576 6.648 2.527c3.657 1.389 6.861 2.644 7.122 2.789.284.158-2.335 2.768-6.554 6.532l-7.027 6.269-.019 5.763c-.01 3.17.089 5.763.22 5.763s1.508-1.159 3.06-2.575c3.122-2.85 2.39-2.632 11.219-3.344l3.394-.273-1.675 2.467c-.922 1.357-1.676 2.593-1.676 2.747 0 .153 2.275.149 5.056-.009 2.78-.158 5.055-.183 5.055-.055s-.845 1.321-1.878 2.651l-1.878 2.419 5.5 5.772c13.276 13.931 22.167 22.744 21.94 21.747-.126-.556-.898-3.603-1.715-6.772l-1.486-5.761.756-6.262c.415-3.444.852-6.165.97-6.047.118.118 1.609 5.567 3.314 12.11l3.099 11.895 7.024 8.349c3.863 4.592 7.417 8.83 7.897 9.418 1.328 1.623 1.329 2.413-.043-26.434l-1.29-27.098 13.712-18.908c7.542-10.4 13.799-18.908 13.904-18.908.105 0 .109.136.008.303-.1.167-2.543 5.858-5.428 12.647l-5.245 12.344-.456 15.323c-.251 8.428-.512 15.38-.581 15.449-.069.069-1.091-3.918-2.271-8.86-2.402-10.059-2.87-11.16-2.87-6.746 0 3.447-1.085 39.346-1.379 45.597-.107 2.285-.041 4.061.146 3.945.187-.116 5.395-9.151 11.573-20.079l11.232-19.869 2.568-13.601c1.413-7.481 2.519-13.831 2.46-14.111-.06-.28-2.543 4.051-5.518 9.623-2.975 5.573-5.484 10.057-5.577 9.964-1.364-1.364 7.367-53.207 9.284-55.124.055-.055.804 5.394 1.665 12.109.862 6.715 1.666 12.383 1.788 12.597.194.339 6.11-35.007 6.124-36.587.003-.334-4.002-5.138-8.898-10.675-4.897-5.538-8.831-10.141-8.743-10.229.088-.088 10.693 2.211 23.568 5.108 12.874 2.898 23.863 5.365 24.419 5.483 1.775.376.215-.565-16.523-9.962l-16.035-9.003-9.233-2.684-9.233-2.683 12.671-4.909c6.969-2.7 13.535-5.227 14.591-5.616 1.919-.706 2.551-1.382 1.214-1.297-.39.025-15.268 1.347-33.064 2.939m21.048 4.351c-2.438.879-4.512 1.677-4.608 1.773-.097.097.897 1.385 2.208 2.863a227.76 227.76 0 013.192 3.662c.751.903 31.881 9.042 32.442 8.481.116-.116-19.563-12.686-27.993-17.88-.683-.421-1.495-.25-5.241 1.101m-34.755.601l3.7 1.464 1.695 8.484c.933 4.666 1.637 8.526 1.566 8.578-.771.562-9.166 6.247-9.582 6.489-.466.271-.529-1.155-.391-8.832.09-5.034.115-9.154.056-9.154-.059 0-1.248.698-2.642 1.55-4.695 2.872-4.451 2.87-3.293.021 1.239-3.049 1.167-3.123-1.744-1.795l-2.352 1.073 2.223-2.345c5.658-5.972 6.664-6.997 6.857-6.997.114 0 1.872.659 3.907 1.464m-90.742.826c-.278.112-.505.363-.505.558 0 .195-4.826 6.825-10.724 14.733L88.968 55.014l5.081 25.92c2.795 14.257 5.012 26.13 4.927 26.385-.219.657-4.608-3.863-6.94-7.15-18.912-26.64-11.111-64.836 15.143-74.144 2.165-.768 5.427-1.362 3.741-.681m181.599.575c23.657 7.97 33.221 40.308 19.766 66.835-3.438 6.78-10.718 16.195-11.261 14.565-.085-.255 2.132-12.128 4.927-26.385l5.081-25.92-10.723-14.379c-5.898-7.908-10.724-14.538-10.724-14.733 0-.195-.227-.446-.505-.558-1.529-.617 1.309-.142 3.439.575M146.613 39.023l-8.089 4.616-.274 1.74c-.15.956-.286 2.665-.303 3.797l-.03 2.058-7.819 7.121c-11.817 10.763-11.842 10.763 2.912.088l10.062-7.28.295-3.438.295-3.438 4.104-3.335c9.786-7.951 9.688-8.115-1.153-1.929m84.145 7.833c1.217 1.092 51.264 35.261 51.419 35.106.155-.155-17.88-26.798-18.891-27.907-.266-.292-31.436-7.513-32.528-7.536-.242-.004-.242.12 0 .337m-10.28 8.017c5.083 2.597 9.17 4.795 9.081 4.884-.123.123-26.378-5.172-28.34-5.716-.448-.124 8.579-3.807 9.454-3.857.309-.018 4.721 2.092 9.805 4.689m-62.541-2.912c-.889.548-2.042 1.002-2.561 1.009-1.068.014-1.09-.101.539 2.746.667 1.166 1.428 2.12 1.69 2.12.687 0 16.032-6.044 16.49-6.496 1.034-1.021-14.459-.425-16.158.621m31.316 8.403c3.414 7.215 8.551 17.4 8.693 17.232.092-.109-.829-14.384-.954-14.786-.085-.273-9.472-7.4-9.747-7.4-.185 0 .718 2.229 2.008 4.954m-46.464 2.376c-3.125 3.549-5.681 6.618-5.681 6.821 0 .489 15.88-9.824 15.899-10.325.008-.214-1.009-.965-2.261-1.669l-2.277-1.28-5.68 6.453m68.536-1.836c3.336 1.033 6.121 1.927 6.188 1.987.209.187 3.777 14.034 3.644 14.142-.144.118-13.977-14.384-16.077-16.854-1.061-1.25-1.205-1.58-.606-1.395l6.851 2.12m-24.216 9.47c-.144 5.673-.372 13.544-.506 17.493-.186 5.434-.128 7.179.238 7.179.444 0 7.416-5.686 7.867-6.417.197-.318-6.325-26.218-6.989-27.759-.216-.5-.449 3.139-.61 9.504m68.486.101c15.712 45.765 17.369 50.357 17.403 48.231.01-.668.372-8.016.804-16.329l.785-15.115-9.791-10.061c-5.385-5.533-9.916-10.061-10.069-10.061-.152-.001.238 1.5.868 3.335m-12.657-.303c-.136.89-1.278 13.084-2.536 27.098l-2.288 25.48-9.273 22.592c-5.101 12.425-9.208 22.656-9.129 22.736.08.08 3.749-3.584 8.153-8.141l8.007-8.285 3.138-12.227 3.138-12.226.305 8.393c.168 4.615.422 8.387.564 8.381.143-.006 3.941-8.79 8.441-19.52l8.183-19.508-.856-9.095c-.808-8.586-1.038-10.058-1.424-9.096-.089.223-2.121 5.003-4.515 10.622l-4.354 10.217-2.333-18.71c-2.425-19.453-2.786-21.549-3.221-18.711m16.584 42.559c-.503.813-18.875 45.078-18.875 45.476 0 .787 1.014-.382 11.164-12.87l10.378-12.77-1.092-9.762c-1.223-10.934-1.187-10.702-1.575-10.074" stroke="none" fill="#ffe427" fill-rule="evenodd"/></g></svg>