<svg id="quality" xmlns="http://www.w3.org/2000/svg" width="29.654" height="37.894"><g id="Group_1497" data-name="Group 1497" transform="translate(3.189 28.933)"><g id="Group_1496" data-name="Group 1496"><path id="Path_2740" data-name="Path 2740" d="M108.245 391.594a4.707 4.707 0 01-5.333.8 4.859 4.859 0 01-1.641-1.273l-2.471 5.456a.475.475 0 00.56.653l1.8-.5a2.288 2.288 0 012.677 1.21l.811 1.679a.474.474 0 00.859-.011l3.925-8.682a2.946 2.946 0 00-1.187.668z" transform="translate(-98.758 -390.926)" fill="#1c1d23"/></g></g><g id="Group_1499" data-name="Group 1499" transform="translate(15.791 28.933)"><g id="Group_1498" data-name="Group 1498"><path id="Path_2741" data-name="Path 2741" d="M279.651 396.577l-2.468-5.458a4.857 4.857 0 01-1.641 1.273 4.707 4.707 0 01-5.333-.8 2.946 2.946 0 00-1.188-.668l3.925 8.682a.474.474 0 00.859.011l.811-1.679a2.288 2.288 0 012.677-1.21l1.8.5a.475.475 0 00.56-.653z" transform="translate(-269.022 -390.926)" fill="#1c1d23"/></g></g><g id="Group_1501" data-name="Group 1501"><g id="Group_1500" data-name="Group 1500"><path id="Path_2742" data-name="Path 2742" d="M84.024 15.379a4.817 4.817 0 01-1.448-6.343 2.977 2.977 0 00-3.453-4.33 4.817 4.817 0 01-5.862-2.823 2.977 2.977 0 00-5.538 0 4.817 4.817 0 01-5.862 2.823 2.977 2.977 0 00-3.453 4.33 4.817 4.817 0 01-1.448 6.343 2.977 2.977 0 001.232 5.4 4.817 4.817 0 014.056 5.087 2.977 2.977 0 004.989 2.4 4.817 4.817 0 016.506 0 2.977 2.977 0 004.989-2.4 4.817 4.817 0 014.056-5.087 2.977 2.977 0 001.232-5.4zm-13.531 9.483a9.741 9.741 0 119.741-9.741 9.752 9.752 0 01-9.741 9.741z" transform="translate(-55.666)" fill="#1c1d23"/></g></g><g id="Group_1503" data-name="Group 1503" transform="translate(6.902 7.196)"><g id="Group_1502" data-name="Group 1502"><path id="Path_2743" data-name="Path 2743" d="M156.845 97.225a7.925 7.925 0 107.925 7.925 7.934 7.934 0 00-7.925-7.925zm4.061 7.157l-4.932 3.6a.908.908 0 01-1.279-.211l-1.475-2.1a.908.908 0 011.486-1.044l.944 1.344 4.185-3.057a.908.908 0 111.071 1.467z" transform="translate(-148.92 -97.225)" fill="#1c1d23"/></g></g></svg>