<svg id="speech-bubble" xmlns="http://www.w3.org/2000/svg" width="31.258" height="28.083"><path id="Path_2812" data-name="Path 2812" d="M246.611 100a.611.611 0 10.611.611.611.611 0 00-.611-.611zm0 0" transform="translate(-230.981 -93.895)"/><path id="Path_2813" data-name="Path 2813" d="M80.611 261.221a.611.611 0 10-.611-.611.611.611 0 00.611.611zm0 0" transform="translate(-75.116 -244.127)"/><path id="Path_2814" data-name="Path 2814" d="M20.513 0c-5.5 0-10.007 3.789-10.356 8.563C4.922 8.825 0 12.6 0 17.7a8.531 8.531 0 002.381 5.838 3.713 3.713 0 01-.981 3.5.61.61 0 00.432 1.042A6.734 6.734 0 006.5 26.2a13.912 13.912 0 004.248.665c5.5 0 10.006-3.788 10.356-8.561a13.728 13.728 0 003.66-.651 6.734 6.734 0 004.666 1.886.61.61 0 00.432-1.042 3.713 3.713 0 01-.981-3.5 8.531 8.531 0 002.381-5.838c0-5.3-5.3-9.158-10.745-9.158zm-9.768 25.641a12.342 12.342 0 01-4.183-.72.611.611 0 00-.676.155 5.509 5.509 0 01-2.74 1.624 4.937 4.937 0 00.372-3.634.609.609 0 00-.149-.258A7.337 7.337 0 011.221 17.7c0-4.3 4.361-7.937 9.524-7.937 4.875 0 9.158 3.39 9.158 7.937 0 4.376-4.108 7.937-9.158 7.937zm17.144-11.378a.612.612 0 00-.149.258 4.937 4.937 0 00.372 3.634 5.507 5.507 0 01-2.74-1.626.611.611 0 00-.676-.155 12.027 12.027 0 01-3.6.705 8.739 8.739 0 00-3.3-6.09h7.963a.611.611 0 100-1.221h-9.834a11.386 11.386 0 00-4.544-1.2c.351-4.1 4.313-7.344 9.132-7.344 5.163 0 9.524 3.634 9.524 7.937a7.337 7.337 0 01-2.148 5.105zm0 0"/><path id="Path_2815" data-name="Path 2815" d="M128.3 260h-7.692a.611.611 0 000 1.221h7.692a.611.611 0 000-1.221zm0 0" transform="translate(-112.674 -244.127)"/><path id="Path_2816" data-name="Path 2816" d="M90.745 320H80.611a.611.611 0 000 1.221h10.134a.611.611 0 000-1.221zm0 0" transform="translate(-75.116 -300.464)"/><path id="Path_2817" data-name="Path 2817" d="M294.3 100h-7.692a.611.611 0 000 1.221h7.692a.611.611 0 000-1.221zm0 0" transform="translate(-268.539 -93.895)"/></svg>